<svg width="322" height="293" fill="none" xmlns="http://www.w3.org/2000/svg"><path d="M161 .007c85.809-.774 160.716 62.803 160.999 145.851.283 80.083-69.101 147.012-160.575 147.141C67.685 293.257.142 224.394 0 146.632-.14 64.228 74.34-.767 161 .007zm53.666 188.021c1.699 1.031 1.983 1.418 2.407 1.547 26.48 5.287 52.392 3.74 78.164-3.998 3.681-1.16 5.097-3.481 5.805-6.576 6.372-23.729 5.948-47.199-1.699-70.54-1.133-3.482-2.69-4.901-6.938-3.998-17.984 3.998-36.392 4.771-54.8 3.095-4.956-.387-7.08.774-8.92 4.771-5.098 11.864-11.895 22.826-20.674 32.885-.85 1.031-1.274 2.45-2.266 4.255 12.036-.129 21.099 3.611 24.072 13.928 3.257 11.606-2.407 19.73-15.151 24.631zM17.134 135.155c-.283 2.966-.85 5.287-.708 7.479.708 9.414 1.84 18.828 2.549 28.242.283 4.772 3.115 6.964 7.788 8.64 35.541 12.251 70.941 12.251 106.341-.258 3.824-1.418 7.505-3.223 11.895-5.029-1.558-1.547-2.407-2.579-3.399-3.353-10.62-8.382-19.399-18.054-27.328-28.628-4.107-5.417-4.107-5.417-11.47-3.869-18.833 3.869-37.807 4.513-56.923 1.934-9.204-1.289-18.408-3.224-28.745-5.158zm199.515 132.826c-1.7-1.289-2.266-1.805-2.832-2.063-20.957-6.319-32.568-19.988-35.542-39.461-1.416-9.672-.991-19.602-.85-29.531 0-2.708-.424-4.385-3.115-5.674-4.531-2.193-8.921-6.061-13.594-6.448-4.248-.258-8.92 3.353-13.31 5.158-.425.129-.85.387-1.274.516-2.974 1.031-3.399 2.837-3.399 5.545.142 8.382.708 16.764-.566 25.018-3.257 20.762-14.868 35.85-38.232 41.782-1.416.387-2.691 1.161-5.24 2.321 39.365 16.12 77.881 17.023 117.954 2.837zM27.895 196.023c.85 2.579 1.133 3.869 1.7 5.029C37.1 216.14 47.86 228.778 60.18 240.9c7.93 7.867 17.134 9.801 27.896 9.285 20.956-1.031 33.559-10.574 37.524-28.886 1.557-7.48 2.973-15.088 0-23.342-32.427 7.996-64.428 7.609-97.704-1.934zM291.13 202.6c-17.275 3.998-33.134 5.287-49.135 4.9-16.284-.387-31.86-3.611-48.286-7.995-.849 11.348-1.274 21.407 2.549 31.466 4.248 10.961 12.036 18.569 24.497 21.02 6.514 1.289 13.594 1.289 20.249 1.16 2.973-.129 6.372-1.418 8.921-3.095 16.284-11.348 29.028-25.662 38.94-41.911.708-1.419 1.132-2.837 2.265-5.545zM198.382 82.411c24.214 13.025 76.464 13.927 91.615 5.932-10.478-23.212-39.364-49.778-64.711-58.934-3.681 8.898-6.938 18.055-11.328 26.824-4.531 8.769-10.195 17.151-15.576 26.178zM89.916 33.021c-35.824 14.958-67.968 59.836-68.959 86.401 13.877 5.674 37.24 8.769 44.038 5.932-.85-.516-1.558-1.161-2.266-1.676-9.487-6.964-11.753-17.023-5.947-25.663 6.089-9.027 17.417-11.606 28.462-6.706 1.557.645 3.115 1.29 5.947 2.45-4.815-20.762-4.532-40.234-1.275-60.739zm37.808 99.039c.283.903.283 1.676.566 2.063 8.071 11.22 18.125 20.891 29.453 29.403 2.832 2.192 4.956 1.16 7.505-.516 20.957-14.057 36.533-31.982 47.153-53.647.708-1.547 1.132-3.095 1.699-5.029-7.647-2.579-15.01-4.514-21.948-7.48-4.531-1.934-7.08-1.031-10.337 1.935-14.727 13.411-31.577 23.857-50.693 31.208-1.274.515-2.266 1.418-3.398 2.063zm43.046-44.877c-26.621-15.347-46.303-35.335-61.171-59.708-9.487 31.337-6.514 61.255 8.921 90.915 19.824-7.092 36.816-16.764 52.25-31.207zm27.187-37.14c4.956-6.706 7.505-14.186 9.771-21.794 1.699-5.803 1.557-6.061-4.673-7.738-22.231-6.19-44.887-7.221-67.685-3.74-3.257.516-6.514 1.677-10.478 2.709 8.637 15.604 19.116 28.628 33.276 39.203-4.107-9.672-4.673-18.7 4.531-25.92 6.655-5.288 14.726-5.933 22.514-2.709 9.204 3.74 12.603 10.962 12.744 19.989zm-6.23 122.123c5.381 3.868 11.328 5.674 17.7 5.803 4.39.129 7.505-2.321 9.204-6.061 1.558-3.611.283-6.706-2.69-9.414-3.116-2.837-6.797-2.966-10.479-1.419-5.522 2.451-10.195 5.932-13.735 11.091zm-11.47-108.325c3.399-6.19 7.647-11.735 5.381-18.828-1.557-5.03-7.221-7.608-12.036-6.06-5.664 1.805-8.354 6.705-5.947 11.734 2.549 5.417 6.514 9.801 12.602 13.154zm-89.916 53.26c-1.416-6.319-3.681-11.349-8.071-15.346-3.257-2.837-7.505-3.482-11.045-1.806-3.54 1.677-5.805 4.256-5.522 8.254.141 4.126 2.407 6.834 6.655 8.124 5.522 1.676 11.328 1.934 17.983.774z" fill="#fff" fill-opacity=".06"/></svg>